<svg width="28" height="34" viewBox="0 0 28 34" fill="none" xmlns="http://www.w3.org/2000/svg">
<path d="M13.7639 29.4917L14 29.7073L14.2361 29.4917C17.6245 26.3961 20.147 23.5403 21.8248 20.9572C23.5003 18.3776 24.35 16.044 24.35 13.9999C24.35 7.76118 19.7812 3.31659 14 3.31659C8.21886 3.31659 3.65002 7.76118 3.65002 13.9999C3.65002 16.044 4.49977 18.3776 6.17525 20.9572C7.853 23.5403 10.3756 26.3961 13.7639 29.4917ZM14 16.6499C12.36 16.6499 11.0167 15.3066 11.0167 13.6666C11.0167 12.0266 12.36 10.6833 14 10.6833C15.6401 10.6833 16.9834 12.0266 16.9834 13.6666C16.9834 15.3066 15.6401 16.6499 14 16.6499ZM14 0.683252C20.8176 0.683252 26.9834 5.90393 26.9834 13.9999C26.9834 16.6722 25.9082 19.6249 23.7083 22.868C21.547 26.0543 18.3142 29.4998 14 33.2058C9.68585 29.4998 6.45308 26.0543 4.29175 22.868C2.09187 19.6249 1.01669 16.6722 1.01669 13.9999C1.01669 5.90393 7.18243 0.683252 14 0.683252Z" fill="#5E5D5D" stroke="white" stroke-width="0.7"/>
</svg>
