<svg width="24" height="16" viewBox="0 0 24 16" fill="none" xmlns="http://www.w3.org/2000/svg">
<path d="M2 9.75081C2.27778 9.75081 2.47222 9.63974 2.58333 9.41761C2.69444 9.19547 2.69444 8.97333 2.58333 8.75119C2.47222 8.52905 2.27778 8.41799 2 8.41799C1.72222 8.41799 1.52778 8.52905 1.41667 8.75119C1.30556 8.97333 1.30556 9.19547 1.41667 9.41761C1.52778 9.63974 1.72222 9.75081 2 9.75081ZM17.3438 9.14688C17.2743 9.05663 17.1406 8.88309 16.9427 8.62624C16.7448 8.36939 16.6007 8.18196 16.5104 8.06395C16.4201 7.94594 16.2882 7.77587 16.1146 7.55373C15.941 7.33159 15.7934 7.14763 15.6719 7.00186C15.5503 6.85608 15.4097 6.69295 15.25 6.51246C15.0903 6.33197 14.934 6.1619 14.7813 6.00224L13.4792 7.46002C12.9028 8.11255 12.1788 8.43187 11.3073 8.41799C10.4358 8.4041 9.72222 8.06395 9.16667 7.39754C8.77083 6.91855 8.57465 6.37015 8.57813 5.75233C8.5816 5.13451 8.78472 4.58958 9.1875 4.11753L11.0313 1.97252C10.8785 1.89616 10.7014 1.83889 10.5 1.80071C10.2986 1.76253 10.1337 1.7417 10.0052 1.73823C9.87674 1.73476 9.68056 1.73649 9.41667 1.74344C9.15278 1.75038 8.98264 1.75385 8.90625 1.75385C8.26736 1.75385 7.71875 1.98293 7.26042 2.44109L5.61458 4.0863H4V9.75081C4.03472 9.75081 4.10764 9.74908 4.21875 9.74561C4.32986 9.74214 4.40625 9.74214 4.44792 9.74561C4.48958 9.74908 4.55729 9.75602 4.65104 9.76643C4.74479 9.77685 4.81597 9.79246 4.86458 9.81329C4.91319 9.83412 4.97396 9.86362 5.04688 9.9018C5.11979 9.93998 5.18403 9.98684 5.23958 10.0424L8.33333 13.0829C9.13194 13.8534 9.92014 14.2387 10.6979 14.2387C11.2396 14.2387 11.6736 14.0756 12 13.7493C12.3958 13.8881 12.7865 13.8604 13.1719 13.666C13.5573 13.4716 13.809 13.1766 13.9271 12.7809C14.441 12.8226 14.8819 12.6698 15.25 12.3228C15.3889 12.1978 15.5139 12.0399 15.625 11.849C15.7361 11.6581 15.7847 11.4828 15.7708 11.3231C15.8403 11.3926 15.9896 11.4273 16.2188 11.4273C16.5174 11.4273 16.7847 11.3544 17.0208 11.2086C17.2569 11.0628 17.4288 10.8789 17.5365 10.6567C17.6441 10.4346 17.6858 10.1864 17.6615 9.91221C17.6372 9.63801 17.5313 9.3829 17.3438 9.14688ZM19 9.75081H20V4.4195H19.0313L17.3958 2.54521C16.9375 2.01764 16.3507 1.75385 15.6354 1.75385H13.8958C13.2778 1.75385 12.7708 1.9864 12.375 2.4515L10.1979 4.98179C10.0035 5.21087 9.90625 5.47119 9.90625 5.76274C9.90625 6.0543 10 6.31462 10.1875 6.5437C10.4861 6.89773 10.8681 7.07822 11.3333 7.08516C11.7986 7.0921 12.184 6.92203 12.4896 6.57494L14.5 4.30496C14.6736 4.1453 14.8594 4.07068 15.0573 4.08109C15.2552 4.0915 15.4184 4.18522 15.5469 4.36223C15.6753 4.53925 15.7049 4.73536 15.6354 4.95055C15.7465 5.08245 15.941 5.30111 16.2188 5.60655C16.4965 5.91199 16.7049 6.14801 16.8438 6.31462C17.0451 6.56452 17.3316 6.9307 17.7031 7.41316C18.0747 7.89561 18.2986 8.18891 18.375 8.29303C18.7361 8.75119 18.9444 9.23712 19 9.75081ZM22 9.75081C22.2778 9.75081 22.4722 9.63974 22.5833 9.41761C22.6944 9.19547 22.6944 8.97333 22.5833 8.75119C22.4722 8.52905 22.2778 8.41799 22 8.41799C21.7222 8.41799 21.5278 8.52905 21.4167 8.75119C21.3056 8.97333 21.3056 9.19547 21.4167 9.41761C21.5278 9.63974 21.7222 9.75081 22 9.75081ZM24 3.75309V10.4172C24 10.5977 23.934 10.7539 23.8021 10.8858C23.6701 11.0177 23.5139 11.0836 23.3333 11.0836H18.8125C18.625 11.5349 18.3403 11.9045 17.9583 12.1926C17.5764 12.4807 17.1424 12.6594 16.6563 12.7289C16.4271 13.0621 16.1476 13.3449 15.8177 13.5775C15.4878 13.81 15.1319 13.968 14.75 14.0513C14.4583 14.4192 14.0955 14.7021 13.6615 14.8999C13.2274 15.0977 12.7813 15.1828 12.3229 15.155C11.9063 15.391 11.4688 15.5281 11.0104 15.5663C10.5521 15.6045 10.1094 15.5559 9.68229 15.4205C9.25521 15.2852 8.84896 15.0995 8.46354 14.8635C8.07813 14.6274 7.71875 14.3463 7.38542 14.02L4.39583 11.0836H0.666667C0.486111 11.0836 0.329861 11.0177 0.197917 10.8858C0.0659722 10.7539 0 10.5977 0 10.4172V3.41988C0 3.2394 0.0659722 3.0832 0.197917 2.95131C0.329861 2.81942 0.486111 2.75347 0.666667 2.75347H5.05208C5.14931 2.65628 5.3125 2.48968 5.54167 2.25366C5.77083 2.01764 5.93576 1.85103 6.03646 1.75385C6.13715 1.65666 6.28993 1.51783 6.49479 1.33734C6.69965 1.15685 6.875 1.02669 7.02083 0.946863C7.16667 0.867032 7.34375 0.778524 7.55208 0.681338C7.76042 0.584153 7.97569 0.51647 8.19792 0.47829C8.42014 0.44011 8.65625 0.421021 8.90625 0.421021H10.125C10.8125 0.421021 11.441 0.615391 12.0104 1.00413C12.5799 0.615391 13.2083 0.421021 13.8958 0.421021H15.6354C15.8785 0.421021 16.1111 0.441846 16.3333 0.483497C16.5556 0.525148 16.7517 0.575476 16.9219 0.634481C17.092 0.693487 17.2708 0.785466 17.4583 0.910418C17.6458 1.03537 17.8003 1.14297 17.9219 1.23321C18.0434 1.32346 18.1927 1.46056 18.3698 1.64451C18.5469 1.82847 18.6823 1.97425 18.776 2.08185C18.8698 2.18945 19.0122 2.35605 19.2031 2.58166C19.3941 2.80727 19.5382 2.97561 19.6354 3.08668H23.3333C23.5139 3.08668 23.6701 3.15262 23.8021 3.28452C23.934 3.41641 24 3.5726 24 3.75309Z" fill="url(#paint0_linear_34_207)"/>
<defs>
<linearGradient id="paint0_linear_34_207" x1="0" y1="0.421021" x2="25.5567" y2="3.79808" gradientUnits="userSpaceOnUse">
<stop stop-color="#48B760"/>
<stop offset="1" stop-color="#6BB748"/>
</linearGradient>
</defs>
</svg>
