<svg width="116" height="36" viewBox="0 0 116 36" fill="none" xmlns="http://www.w3.org/2000/svg">
<g clip-path="url(#clip0_70_438)">
<path d="M35.8025 18C35.8025 21.56 34.7526 25.0402 32.7855 28.0003C30.8186 30.9604 28.0227 33.2675 24.7518 34.6298C21.4807 35.9922 17.8814 36.3487 14.4089 35.6541C10.9364 34.9596 7.74666 33.2453 5.24316 30.7279C2.73963 28.2106 1.0347 25.0033 0.343975 21.5117C-0.346748 18.0199 0.00775655 14.4008 1.36266 11.1117C2.71756 7.82266 5.01201 5.01141 7.95582 3.03355C10.8997 1.05568 14.3607 -4.24534e-08 17.9012 0V18H35.8025Z" fill="#A1B748"/>
<path d="M31.5063 18C31.5063 14.835 30.4149 11.768 28.4181 9.32145C26.4213 6.87494 23.6426 5.20028 20.5555 4.58283C17.4684 3.96538 14.2639 4.44334 11.488 5.93529C8.71213 7.4272 6.53653 9.84086 5.33201 12.7648C4.12748 15.6889 3.96852 18.9424 4.88221 21.9711C5.79591 24.9997 7.72569 27.6161 10.3429 29.3745C12.9599 31.1328 16.1024 31.9243 19.2348 31.6141C22.3673 31.3039 25.2958 29.9111 27.5215 27.6732L17.9013 18H31.5063Z" fill="#4F4F4F"/>
<path d="M35.8025 18C35.8025 21.56 34.7526 25.0402 32.7855 28.0003C30.8186 30.9604 28.0227 33.2675 24.7518 34.6298C21.4807 35.9922 17.8814 36.3487 14.4089 35.6541C10.9364 34.9596 7.74666 33.2453 5.24316 30.7279C2.73963 28.2106 1.0347 25.0033 0.343975 21.5117C-0.346748 18.0199 0.00775655 14.4008 1.36266 11.1117C2.71756 7.82266 5.01201 5.01141 7.95582 3.03355C10.8997 1.05568 14.3607 -4.24534e-08 17.9012 0V18H35.8025Z" fill="url(#paint0_linear_70_438)"/>
<path d="M57.8001 25.2L56.4155 20.7703H50.034L48.6495 25.2H44.7476L51.0535 6.93702H55.5219L61.8404 25.2H57.8001ZM53.1807 10.4301L50.8522 17.91H55.5974L53.2688 10.4301H53.1807ZM79.0591 17.5303C79.0591 20.0194 78.3459 21.9727 76.9195 23.3901C75.501 24.8077 73.5297 25.5164 71.0037 25.5164C68.2849 25.5164 66.1451 24.6726 64.5843 22.9851C63.032 21.2977 62.2558 18.9731 62.2558 16.0116C62.2558 13.0922 63.0278 10.7972 64.5717 9.12656C66.1241 7.45594 68.2387 6.62061 70.9155 6.62061C73.0299 6.62061 74.8215 7.19436 76.2901 8.34183C77.7587 9.48937 78.6273 10.987 78.8958 12.8348H75.0814C74.805 11.8814 74.2973 11.1346 73.5591 10.5946C72.8287 10.0546 71.9516 9.78464 70.9281 9.78464C69.4261 9.78464 68.2513 10.3289 67.4038 11.4173C66.5563 12.5057 66.1325 14.0203 66.1325 15.9609C66.1325 17.9353 66.5731 19.492 67.4541 20.6311C68.3436 21.7701 69.5478 22.3396 71.0665 22.3396C72.3082 22.3396 73.3199 21.9895 74.0997 21.2892C74.8888 20.5889 75.3041 19.6734 75.3464 18.5428L75.3585 18.2517H71.4064V15.4673H79.0591V17.5303ZM85.3775 9.92389V15.7457H88.6506C89.6072 15.7457 90.3497 15.4884 90.8782 14.9737C91.4152 14.459 91.6837 13.7461 91.6837 12.8348C91.6837 11.9489 91.4066 11.2444 90.8531 10.7212C90.2989 10.1896 89.5521 9.92389 88.6126 9.92389H85.3775ZM85.3775 18.5175V25.2H81.5767V6.93702H89.015C91.088 6.93702 92.6991 7.45594 93.8484 8.49375C95.0069 9.52313 95.5855 10.9448 95.5855 12.7589C95.5855 13.9485 95.2919 15.0117 94.7047 15.9483C94.1255 16.8764 93.3199 17.5429 92.2881 17.9479L96.1147 25.2H91.8098L88.4236 18.5175H85.3775ZM99.8775 9.1645C101.456 7.46854 103.591 6.62061 106.285 6.62061C108.978 6.62061 111.109 7.46854 112.678 9.1645C114.256 10.8605 115.045 13.1639 115.045 16.0748C115.045 18.9773 114.256 21.2766 112.678 22.9724C111.101 24.6684 108.97 25.5164 106.285 25.5164C103.591 25.5164 101.456 24.6684 99.8775 22.9724C98.3086 21.2766 97.5238 18.9773 97.5238 16.0748C97.5238 13.1639 98.3086 10.8605 99.8775 9.1645ZM109.834 11.5059C108.953 10.3753 107.77 9.80998 106.285 9.80998C104.799 9.80998 103.612 10.3753 102.722 11.5059C101.842 12.6366 101.401 14.1595 101.401 16.0748C101.401 17.9817 101.842 19.5005 102.722 20.6311C103.604 21.7533 104.791 22.3144 106.285 22.3144C107.77 22.3144 108.953 21.7533 109.834 20.6311C110.715 19.5005 111.155 17.9817 111.155 16.0748C111.155 14.1595 110.715 12.6366 109.834 11.5059Z" fill="#4F4F4F"/>
<path d="M46.5977 33.9033C46.3366 33.9033 46.1035 33.8435 45.8984 33.724C45.6956 33.6045 45.5348 33.4369 45.4159 33.2212H45.4019V33.84H44.8215V28.767H45.4299V30.7955H45.4439C45.5581 30.5845 45.7166 30.4193 45.9194 30.2998C46.1245 30.1803 46.3541 30.1205 46.6081 30.1205C47.0673 30.1205 47.438 30.2927 47.72 30.6373C48.002 30.9818 48.1431 31.44 48.1431 32.0119C48.1431 32.5861 48.002 33.0455 47.72 33.39C47.438 33.7322 47.0638 33.9033 46.5977 33.9033ZM46.4788 30.6584C46.1688 30.6584 45.9159 30.7838 45.7201 31.0345C45.5243 31.283 45.4264 31.6087 45.4264 32.0119C45.4264 32.4174 45.5243 32.7443 45.7201 32.9927C45.9159 33.2412 46.1688 33.3654 46.4788 33.3654C46.8005 33.3654 47.0545 33.2447 47.241 33.0033C47.4275 32.7595 47.5207 32.4291 47.5207 32.0119C47.5207 31.5971 47.4275 31.2677 47.241 31.024C47.0545 30.7802 46.8005 30.6584 46.4788 30.6584ZM53.7775 33.9033C53.2693 33.9033 52.8614 33.7334 52.5537 33.3935C52.2461 33.0513 52.0922 32.5908 52.0922 32.0119C52.0922 31.433 52.2461 30.9736 52.5537 30.6338C52.8614 30.2916 53.2693 30.1205 53.7775 30.1205C54.2833 30.1205 54.69 30.2916 54.9977 30.6338C55.3054 30.9736 55.4592 31.433 55.4592 32.0119C55.4592 32.5884 55.3054 33.0478 54.9977 33.39C54.69 33.7322 54.2833 33.9033 53.7775 33.9033ZM52.9978 33.0068C53.1912 33.2459 53.4511 33.3654 53.7775 33.3654C54.1038 33.3654 54.3625 33.247 54.5536 33.0104C54.7448 32.7712 54.8404 32.4385 54.8404 32.0119C54.8404 31.5853 54.7448 31.2537 54.5536 31.017C54.3625 30.7779 54.1038 30.6584 53.7775 30.6584C53.4511 30.6584 53.1912 30.7779 52.9978 31.017C52.8066 31.256 52.7111 31.5876 52.7111 32.0119C52.7111 32.4361 52.8066 32.7677 52.9978 33.0068ZM59.779 29.3014H60.3874V30.1838H61.0936V30.6865H60.3874V32.8592C60.3874 33.0255 60.4235 33.1486 60.4957 33.2283C60.568 33.3056 60.6822 33.3443 60.8384 33.3443C60.9363 33.3443 61.0202 33.3385 61.0901 33.3267V33.84C61.0108 33.8587 60.8827 33.8682 60.7055 33.8682C60.3722 33.8682 60.1345 33.7931 59.9923 33.6432C59.8501 33.4931 59.779 33.2423 59.779 32.8908V30.6865H59.237V30.1838H59.779V29.3014Z" fill="url(#paint1_linear_70_438)"/>
</g>
<defs>
<linearGradient id="paint0_linear_70_438" x1="17.9012" y1="0" x2="17.9012" y2="36" gradientUnits="userSpaceOnUse">
<stop stop-color="#48B760"/>
<stop offset="1" stop-color="#6BB748" stop-opacity="0.63"/>
</linearGradient>
<linearGradient id="paint1_linear_70_438" x1="44.395" y1="26.64" x2="62.5151" y2="29.6479" gradientUnits="userSpaceOnUse">
<stop stop-color="#48B760"/>
<stop offset="1" stop-color="#6BB748"/>
</linearGradient>
<clipPath id="clip0_70_438">
<rect width="116" height="36" fill="white"/>
</clipPath>
</defs>
</svg>
