<svg width="12" height="12" viewBox="0 0 12 12" fill="none" xmlns="http://www.w3.org/2000/svg">
<path d="M10.82 8.17326L9.12669 7.97993C8.92758 7.95654 8.72577 7.97858 8.5364 8.0444C8.34703 8.11022 8.17505 8.21809 8.03336 8.35993L6.80669 9.58659C4.91415 8.62407 3.37588 7.0858 2.41336 5.19326L3.64669 3.95993C3.93336 3.67326 4.07336 3.27326 4.02669 2.86659L3.83336 1.18659C3.79556 0.861377 3.63949 0.561417 3.39485 0.343824C3.15021 0.126232 2.8341 0.00620363 2.50669 0.00659274H1.35336C0.600027 0.00659274 -0.0266396 0.633259 0.0200271 1.38659C0.37336 7.07993 4.92669 11.6266 10.6134 11.9799C11.3667 12.0266 11.9934 11.3999 11.9934 10.6466V9.49326C12 8.81993 11.4934 8.25326 10.82 8.17326Z" fill="url(#paint0_linear_34_1411)"/>
<defs>
<linearGradient id="paint0_linear_34_1411" x1="0.0175781" y1="0.0065918" x2="12.9031" y2="1.08199" gradientUnits="userSpaceOnUse">
<stop stop-color="#48B760"/>
<stop offset="1" stop-color="#6BB748"/>
</linearGradient>
</defs>
</svg>
