<svg width="30" height="41" viewBox="0 0 30 41" fill="none" xmlns="http://www.w3.org/2000/svg">
<path d="M15.0001 0.166748C6.93758 0.166748 0.416748 6.68758 0.416748 14.7501C0.416748 23.4376 9.62508 35.4168 13.4167 39.9793C14.2501 40.9793 15.7709 40.9793 16.6042 39.9793C20.3751 35.4168 29.5834 23.4376 29.5834 14.7501C29.5834 6.68758 23.0626 0.166748 15.0001 0.166748ZM15.0001 19.9584C13.6187 19.9584 12.294 19.4097 11.3172 18.4329C10.3405 17.4562 9.79175 16.1314 9.79175 14.7501C9.79175 13.3687 10.3405 12.044 11.3172 11.0672C12.294 10.0905 13.6187 9.54175 15.0001 9.54175C16.3814 9.54175 17.7062 10.0905 18.6829 11.0672C19.6597 12.044 20.2084 13.3687 20.2084 14.7501C20.2084 16.1314 19.6597 17.4562 18.6829 18.4329C17.7062 19.4097 16.3814 19.9584 15.0001 19.9584Z" fill="white"/>
</svg>
