<svg width="10" height="14" viewBox="0 0 10 14" fill="none" xmlns="http://www.w3.org/2000/svg">
<path d="M4.99992 0.333252C2.41992 0.333252 0.333252 2.41992 0.333252 4.99992C0.333252 7.77992 3.27992 11.6133 4.49325 13.0733C4.75992 13.3933 5.24659 13.3933 5.51325 13.0733C6.71992 11.6133 9.66659 7.77992 9.66659 4.99992C9.66659 2.41992 7.57992 0.333252 4.99992 0.333252ZM4.99992 6.66658C4.55789 6.66658 4.13397 6.49099 3.82141 6.17843C3.50885 5.86587 3.33325 5.44195 3.33325 4.99992C3.33325 4.55789 3.50885 4.13397 3.82141 3.82141C4.13397 3.50885 4.55789 3.33325 4.99992 3.33325C5.44195 3.33325 5.86587 3.50885 6.17843 3.82141C6.49099 4.13397 6.66659 4.55789 6.66659 4.99992C6.66659 5.44195 6.49099 5.86587 6.17843 6.17843C5.86587 6.49099 5.44195 6.66658 4.99992 6.66658Z" fill="url(#paint0_linear_34_1419)"/>
<defs>
<linearGradient id="paint0_linear_34_1419" x1="0.333252" y1="0.333252" x2="10.4092" y2="0.937912" gradientUnits="userSpaceOnUse">
<stop stop-color="#48B760"/>
<stop offset="1" stop-color="#6BB748"/>
</linearGradient>
</defs>
</svg>
